<svg width="143" height="158" viewBox="0 0 143 158" fill="none" xmlns="http://www.w3.org/2000/svg">
<path d="M111.238 98.183C102.012 106.899 83.3278 124.17 76.3673 129.292C75.2965 130.08 74.0635 130.619 72.7386 130.729C71.178 130.86 69.6017 130.704 68.0847 130.264C65.9228 129.636 63.9536 128.452 62.3646 126.823L34.425 98.183C28.1029 91.7007 23.4945 83.6748 21.0338 74.8616C18.5732 66.0484 18.3413 56.738 20.36 47.8075C22.3788 38.877 26.5817 30.6204 32.5728 23.8157C38.5639 17.011 46.1459 11.8821 54.6046 8.91224C63.0633 5.9424 72.1201 5.22938 80.9219 6.84035C89.7236 8.45133 97.9805 12.3333 104.915 18.1204C111.849 23.9076 117.232 31.4095 120.556 39.9193C123.683 47.9211 124.893 56.5664 124.095 65.1317C123.994 66.2163 123.727 67.2776 123.348 68.2988L122.738 69.9404" stroke="black" stroke-width="3" stroke-linecap="round" stroke-linejoin="round"/>
<path d="M56.3181 47.0629C58.4855 46.6443 59.704 47.3783 61.8181 48.0629C64.3181 49.502 64.1749 49.503 66.0346 50.5629L67.7684 52.5629C69.3386 51.0009 71.8194 48.7522 73.8181 48.0629C75.8168 47.3736 73.8181 48.0629 76.8181 47.0629L79.4423 47.0629C82.0536 47.574 83.8181 48.0629 86.3181 49.7145C88.3299 51.6697 89.9738 53.2156 90.8181 56.0629C91.6624 58.9102 92.466 62.7405 91.9045 65.6761C91.343 68.6118 90.0916 71.3207 88.2828 73.5159L87.842 74.0295L87.7245 74.1433L69.4802 94.6275C69.0591 95.0998 68.5014 95.3832 67.9101 95.425C67.3189 95.4669 66.7344 95.2644 66.2648 94.8551L66.0346 94.6275L47.6849 74.024C45.741 71.8799 44.3586 69.1678 43.6907 66.188C43.0228 63.2082 43.0954 60.077 43.9007 57.1412C44.8821 53.563 47.2775 51.7397 49.3182 49.7145C51.3589 47.6893 53.6445 47.5795 56.3181 47.0629Z" fill="#E13333"/>
<path d="M50.3093 69.7447L70.7152 92.9404L78.5946 83.9844M95.2377 58.6778C95.2604 55.3844 94.3752 52.1671 92.7087 49.486C91.0421 46.8049 88.6796 44.7973 85.9589 43.7503C83.2382 42.7033 80.2987 42.6706 77.5608 43.6567C74.8229 44.6429 72.4268 46.5974 70.7152 49.2409C69.5901 47.5234 68.1682 46.091 66.5386 45.0333C64.9089 43.9756 63.1066 43.3153 61.2444 43.0938C59.3821 42.8723 57.5002 43.0944 55.7162 43.7461C53.9322 44.3978 52.2845 45.4651 50.8765 46.8812C49.4684 48.2973 48.3301 50.0318 47.533 51.976C46.7358 53.9203 46.2969 56.0324 46.2436 58.1803C46.1904 60.3282 46.524 62.4656 47.2236 64.4587C47.9232 66.4518 48.9737 68.2577 50.3093 69.7635M65.2382 72.6425H70.7152H78.5946L82.2382 66.9404L85.9589 73.9404L89.7607 63.2743L92.4815 72.6425L95.2377 82.4404L99.2382 72.6425L103.738 60.4404L106.738 69.7447L122.738 69.7635" stroke="black" stroke-width="3" stroke-linecap="round" stroke-linejoin="round"/>
<path d="M3.73669 147.048L2.94469 147.024C2.84869 147.024 2.72869 147.016 2.58469 147C2.48869 146.248 2.44069 145.176 2.44069 143.784L2.41669 140.592V137.832C2.41669 136.52 2.43269 134.664 2.46469 132.264V131.04C2.46469 130.768 2.56869 130.568 2.77669 130.44C2.98469 130.312 3.19269 130.24 3.40069 130.224C3.60869 130.208 3.84069 130.2 4.09669 130.2H4.57669C6.86469 130.2 8.76069 130.672 10.2647 131.616C11.7847 132.544 12.5447 133.808 12.5447 135.408C12.5447 136.432 12.2407 137.384 11.6327 138.264L9.59269 140.304C9.59269 140.368 10.1047 140.904 11.1287 141.912C12.7607 143.496 13.7127 144.44 13.9847 144.744C14.2567 145.048 14.4407 145.256 14.5367 145.368C14.6487 145.464 14.7367 145.544 14.8007 145.608C14.9607 145.8 15.0327 145.952 15.0167 146.064C15.0167 146.176 14.8487 146.408 14.5127 146.76C14.1927 147.112 13.9527 147.288 13.7927 147.288C13.6327 147.288 13.4327 147.168 13.1927 146.928C12.9687 146.672 12.7447 146.448 12.5207 146.256C12.3127 146.064 11.9047 145.656 11.2967 145.032C10.7047 144.408 9.95269 143.648 9.04069 142.752C8.12869 141.84 7.64069 141.384 7.57669 141.384L4.91269 141.936C4.88069 142.064 4.86469 142.888 4.86469 144.408C4.86469 145.912 4.80069 146.728 4.67269 146.856C4.54469 146.984 4.23269 147.048 3.73669 147.048ZM4.86469 132C4.81669 132.256 4.79269 133.232 4.79269 134.928C4.79269 136.624 4.82469 138.488 4.88869 140.52C6.24869 140.44 7.48069 139.944 8.58469 139.032C9.68869 138.104 10.2407 137.064 10.2407 135.912C10.2407 134.76 9.77669 133.816 8.84869 133.08C7.93669 132.328 6.79269 131.952 5.41669 131.952C5.30469 131.952 5.12069 131.968 4.86469 132ZM25.1503 141.072C25.1503 141.072 23.3183 141.08 19.6543 141.096C19.0623 141.096 18.7183 141.144 18.6223 141.24C18.5423 141.352 18.5023 141.536 18.5023 141.792C18.5023 143.04 18.8543 144 19.5583 144.672C20.2783 145.328 21.0943 145.656 22.0063 145.656C22.9183 145.656 23.6303 145.536 24.1423 145.296C24.1583 145.296 24.3183 145.192 24.6223 144.984C24.9263 144.776 25.1343 144.672 25.2463 144.672C25.3743 144.672 25.4703 144.72 25.5343 144.816C25.5983 144.912 25.6303 145.008 25.6303 145.104C25.6303 145.712 25.1823 146.232 24.2863 146.664C23.3903 147.08 22.3423 147.288 21.1423 147.288C19.9583 147.288 18.8223 146.808 17.7343 145.848C16.6623 144.888 16.1263 143.592 16.1263 141.96C16.1263 140.328 16.6303 138.984 17.6383 137.928C18.6623 136.872 20.0303 136.344 21.7423 136.344C22.9903 136.344 23.9983 136.712 24.7663 137.448C25.5823 138.216 25.9903 139.144 25.9903 140.232C25.9903 140.792 25.7103 141.072 25.1503 141.072ZM18.9103 139.896C21.9503 139.896 23.7103 139.88 24.1903 139.848C24.1423 139.208 23.8943 138.68 23.4463 138.264C23.0143 137.848 22.4623 137.64 21.7903 137.64C21.1183 137.64 20.4863 137.88 19.8943 138.36C19.3183 138.824 18.9903 139.336 18.9103 139.896ZM28.0303 145.824L28.8943 145.92C29.5343 145.92 30.1103 145.784 30.6223 145.512C31.1343 145.224 31.3903 144.816 31.3903 144.288C31.3903 144.096 31.3503 143.896 31.2703 143.688C31.2063 143.464 30.9503 143.152 30.5023 142.752C30.0703 142.336 29.6703 141.864 29.3023 141.336C28.9343 140.808 28.7503 140.216 28.7503 139.56C28.7503 138.92 29.0383 138.248 29.6143 137.544C29.8863 137.208 30.2943 136.928 30.8383 136.704C31.3823 136.464 31.9103 136.344 32.4223 136.344C32.9503 136.344 33.2703 136.408 33.3823 136.536C33.5103 136.648 33.5583 136.816 33.5263 137.04L33.3343 137.736C33.0943 137.672 32.8143 137.64 32.4943 137.64C32.1903 137.64 31.8703 137.768 31.5343 138.024C31.1983 138.264 31.0303 138.576 31.0303 138.96C31.0303 139.344 31.1743 139.736 31.4623 140.136C31.7503 140.52 32.0703 140.856 32.4223 141.144C32.7743 141.432 33.0943 141.824 33.3823 142.32C33.6703 142.816 33.8143 143.352 33.8143 143.928C33.8143 145.032 33.3263 145.872 32.3503 146.448C31.3743 147.008 30.2143 147.288 28.8703 147.288C28.5183 147.288 28.2623 147.216 28.1023 147.072C27.9423 146.944 27.8623 146.736 27.8623 146.448C27.8623 146.144 27.9183 145.936 28.0303 145.824ZM49.2688 146.448C49.2048 146.48 49.1168 146.512 49.0048 146.544C48.9088 146.576 48.8128 146.608 48.7168 146.64C48.6368 146.672 48.5488 146.704 48.4528 146.736C48.3728 146.768 48.3088 146.8 48.2608 146.832C48.2128 146.848 48.1968 146.88 48.2128 146.928C48.2288 146.96 48.3808 147.056 48.6688 147.216C48.9568 147.392 49.2848 147.552 49.6528 147.696C50.0368 147.84 50.9008 148.128 52.2448 148.56C53.6048 149.008 54.5968 149.288 55.2208 149.4C55.8448 149.512 56.1568 149.648 56.1568 149.808C56.1568 150 56.0528 150.28 55.8448 150.648C55.6368 151.032 55.4848 151.224 55.3888 151.224C55.3088 151.208 55.1568 151.176 54.9328 151.128C54.7248 151.08 54.4448 151.024 54.0928 150.96C53.7568 150.912 52.9568 150.696 51.6928 150.312C50.4448 149.928 49.5888 149.64 49.1248 149.448C48.6768 149.272 48.0688 148.992 47.3008 148.608C45.6528 147.776 44.3568 147.272 43.4128 147.096C41.4288 146.696 39.7728 145.752 38.4448 144.264C37.1328 142.776 36.4688 140.96 36.4528 138.816C36.4528 137.92 36.6208 136.968 36.9568 135.96C37.2928 134.936 37.6928 134.112 38.1568 133.488C38.6368 132.848 39.2048 132.256 39.8608 131.712C40.5168 131.168 41.3568 130.736 42.3808 130.416C43.4048 130.08 44.5408 129.912 45.7888 129.912C48.1888 129.912 50.2048 130.664 51.8368 132.168C53.4848 133.656 54.3088 135.736 54.3088 138.408C54.3088 140.248 53.8528 141.872 52.9408 143.28C52.0288 144.688 50.8048 145.744 49.2688 146.448ZM46.0528 131.808C44.0208 131.808 42.3568 132.408 41.0608 133.608C39.7648 134.808 39.1168 136.424 39.1168 138.456C39.1168 140.488 39.6928 142.136 40.8448 143.4C42.0128 144.664 43.5728 145.296 45.5248 145.296C47.4928 145.296 49.0848 144.656 50.3008 143.376C51.5328 142.08 52.1488 140.456 52.1488 138.504C52.1488 136.552 51.5408 134.952 50.3248 133.704C49.1248 132.44 47.7008 131.808 46.0528 131.808ZM65.6732 145.344C65.9452 145.344 66.0812 145.536 66.0812 145.92C66.0812 146.832 64.8972 147.288 62.5292 147.288C61.5212 147.288 60.6252 147.128 59.8412 146.808C59.0572 146.488 58.4492 146.072 58.0172 145.56C57.1212 144.504 56.6732 143.328 56.6732 142.032C56.6732 140.368 57.2972 139.024 58.5452 138C59.7932 136.96 61.3452 136.44 63.2012 136.44C65.0572 136.44 65.9852 136.704 65.9852 137.232C65.9852 137.6 65.9212 137.808 65.7932 137.856C65.6652 137.904 65.5692 137.928 65.5052 137.928H65.0732C63.1692 137.928 61.6892 138.208 60.6332 138.768C59.5772 139.312 59.0492 140.256 59.0492 141.6C59.0492 142.944 59.4492 143.968 60.2492 144.672C61.0652 145.36 62.2012 145.704 63.6572 145.704C63.9932 145.704 64.3772 145.648 64.8092 145.536C65.2412 145.408 65.5292 145.344 65.6732 145.344ZM81.6272 136.608L82.7552 136.584C82.7552 136.664 82.8032 136.864 82.8992 137.184C82.9952 137.152 83.2672 137.056 83.7152 136.896C84.7712 136.528 85.6432 136.344 86.3312 136.344C87.0352 136.344 87.6512 136.456 88.1792 136.68C88.7072 136.888 89.1152 137.16 89.4032 137.496C89.6912 137.816 89.9232 138.248 90.0992 138.792C90.3552 139.672 90.4832 140.84 90.4832 142.296C90.4832 142.296 90.4432 143.664 90.3632 146.4C90.3632 146.72 90.3312 146.904 90.2672 146.952C90.2192 147 89.9952 147.024 89.5952 147.024C89.2112 147.024 88.7632 146.992 88.2512 146.928C88.2032 146.544 88.1792 145.872 88.1792 144.912L88.2032 141.84C88.2032 140.56 87.9872 139.6 87.5552 138.96C87.1232 138.304 86.3792 137.976 85.3232 137.976C84.2832 137.976 83.4912 138.128 82.9472 138.432L82.9952 141.648C83.0112 143.088 83.0192 144.208 83.0192 145.008L83.0672 146.424C83.0672 146.68 83.0032 146.848 82.8752 146.928C82.7472 146.992 82.4752 147.024 82.0592 147.024L80.8112 146.976L80.7152 141.96L80.8112 138.312V137.448C80.8112 136.888 81.0832 136.608 81.6272 136.608ZM94.9163 136.608L96.0443 136.584C96.0443 136.664 96.0923 136.864 96.1883 137.184C96.2843 137.152 96.5563 137.056 97.0043 136.896C98.0603 136.528 98.9323 136.344 99.6203 136.344C100.324 136.344 100.94 136.456 101.468 136.68C101.996 136.888 102.404 137.16 102.692 137.496C102.98 137.816 103.212 138.248 103.388 138.792C103.644 139.672 103.772 140.84 103.772 142.296C103.772 142.296 103.732 143.664 103.652 146.4C103.652 146.72 103.62 146.904 103.556 146.952C103.508 147 103.284 147.024 102.884 147.024C102.5 147.024 102.052 146.992 101.54 146.928C101.492 146.544 101.468 145.872 101.468 144.912L101.492 141.84C101.492 140.56 101.276 139.6 100.844 138.96C100.412 138.304 99.6683 137.976 98.6123 137.976C97.5723 137.976 96.7803 138.128 96.2363 138.432L96.2843 141.648C96.3003 143.088 96.3083 144.208 96.3083 145.008L96.3563 146.424C96.3563 146.68 96.2923 146.848 96.1643 146.928C96.0363 146.992 95.7643 147.024 95.3483 147.024L94.1003 146.976L94.0043 141.96L94.1003 138.312V137.448C94.1003 136.888 94.3723 136.608 94.9163 136.608ZM115.525 141.072C115.525 141.072 113.693 141.08 110.029 141.096C109.437 141.096 109.093 141.144 108.997 141.24C108.917 141.352 108.877 141.536 108.877 141.792C108.877 143.04 109.229 144 109.933 144.672C110.653 145.328 111.469 145.656 112.381 145.656C113.293 145.656 114.005 145.536 114.517 145.296C114.533 145.296 114.693 145.192 114.997 144.984C115.301 144.776 115.509 144.672 115.621 144.672C115.749 144.672 115.845 144.72 115.909 144.816C115.973 144.912 116.005 145.008 116.005 145.104C116.005 145.712 115.557 146.232 114.661 146.664C113.765 147.08 112.717 147.288 111.517 147.288C110.333 147.288 109.197 146.808 108.109 145.848C107.037 144.888 106.501 143.592 106.501 141.96C106.501 140.328 107.005 138.984 108.013 137.928C109.037 136.872 110.405 136.344 112.117 136.344C113.365 136.344 114.373 136.712 115.141 137.448C115.957 138.216 116.365 139.144 116.365 140.232C116.365 140.792 116.085 141.072 115.525 141.072ZM109.285 139.896C112.325 139.896 114.085 139.88 114.565 139.848C114.517 139.208 114.269 138.68 113.821 138.264C113.389 137.848 112.837 137.64 112.165 137.64C111.493 137.64 110.861 137.88 110.269 138.36C109.693 138.824 109.365 139.336 109.285 139.896ZM127.501 145.344C127.773 145.344 127.909 145.536 127.909 145.92C127.909 146.832 126.725 147.288 124.357 147.288C123.349 147.288 122.453 147.128 121.669 146.808C120.885 146.488 120.277 146.072 119.845 145.56C118.949 144.504 118.501 143.328 118.501 142.032C118.501 140.368 119.125 139.024 120.373 138C121.621 136.96 123.173 136.44 125.029 136.44C126.885 136.44 127.813 136.704 127.813 137.232C127.813 137.6 127.749 137.808 127.621 137.856C127.493 137.904 127.397 137.928 127.333 137.928H126.901C124.997 137.928 123.517 138.208 122.461 138.768C121.405 139.312 120.877 140.256 120.877 141.6C120.877 142.944 121.277 143.968 122.077 144.672C122.893 145.36 124.029 145.704 125.485 145.704C125.821 145.704 126.205 145.648 126.637 145.536C127.069 145.408 127.357 145.344 127.501 145.344ZM133.375 140.064L133.327 143.52C133.327 144.176 133.439 144.68 133.663 145.032C133.887 145.368 134.263 145.536 134.791 145.536C135.319 145.536 135.767 145.488 136.135 145.392C136.823 145.2 137.167 145.296 137.167 145.68C137.167 146.752 136.175 147.288 134.191 147.288C133.071 147.288 132.199 146.784 131.575 145.776C131.271 145.136 131.119 144.376 131.119 143.496L131.167 140.712L131.215 138.696C131.215 138.472 131.183 138.336 131.119 138.288C131.055 138.224 130.935 138.192 130.759 138.192L129.823 138.264C129.423 138.264 129.223 138.136 129.223 137.88C129.223 137.432 129.271 137.12 129.367 136.944C129.479 136.752 129.679 136.656 129.967 136.656L130.903 136.728C131.127 136.728 131.239 136.456 131.239 135.912C131.239 135.848 131.239 135.808 131.239 135.792V134.424C131.239 134.008 131.247 133.768 131.263 133.704C131.455 133.608 132.087 133.56 133.159 133.56C133.447 133.56 133.591 133.712 133.591 134.016L133.519 136.656C133.711 136.672 134.023 136.68 134.455 136.68L136.375 136.536C136.631 136.536 136.759 136.688 136.759 136.992C136.759 137.872 136.327 138.312 135.463 138.312L133.903 138.216C133.647 138.216 133.487 138.232 133.423 138.264C133.391 138.552 133.375 139.152 133.375 140.064Z" fill="black"/>
<path d="M68 142C68 142.657 68.1293 143.307 68.3806 143.913C68.6319 144.52 69.0002 145.071 69.4645 145.536C69.9288 146 70.48 146.368 71.0866 146.619C71.6932 146.871 72.3434 147 73 147C73.6566 147 74.3068 146.871 74.9134 146.619C75.52 146.368 76.0712 146 76.5355 145.536C76.9998 145.071 77.3681 144.52 77.6194 143.913C77.8707 143.307 78 142.657 78 142C78 141.343 77.8707 140.693 77.6194 140.087C77.3681 139.48 76.9998 138.929 76.5355 138.464C76.0712 138 75.52 137.632 74.9134 137.381C74.3068 137.129 73.6566 137 73 137C72.3434 137 71.6932 137.129 71.0866 137.381C70.48 137.632 69.9288 138 69.4645 138.464C69.0002 138.929 68.6319 139.48 68.3806 140.087C68.1293 140.693 68 141.343 68 142Z" fill="#E13333" stroke="#070707" stroke-linecap="round" stroke-linejoin="round"/>
</svg>
